# This file uses centimeters as units for non-parametric coordinates.

mtllib reference_cube_inverted.mtl
g default
v -4.127520 0.000000 21.567745
v 20.627419 0.000000 21.567745
v -4.127520 24.754938 21.567745
v 20.627419 24.754938 21.567745
v -4.127520 24.754938 -3.187193
v 20.627419 24.754938 -3.187193
v -4.127520 0.000000 -3.187193
v 20.627419 0.000000 -3.187193
vt 0.375000 0.000000
vt 0.625000 0.000000
vt 0.375000 0.250000
vt 0.625000 0.250000
vt 0.375000 0.500000
vt 0.625000 0.500000
vt 0.375000 0.750000
vt 0.625000 0.750000
vt 0.375000 1.000000
vt 0.625000 1.000000
vt 0.875000 0.000000
vt 0.875000 0.250000
vt 0.125000 0.000000
vt 0.125000 0.250000
vn 0.000000 0.000000 -1.000000
vn 0.000000 0.000000 -1.000000
vn 0.000000 0.000000 -1.000000
vn 0.000000 0.000000 -1.000000
vn 0.000000 -1.000000 0.000000
vn 0.000000 -1.000000 0.000000
vn 0.000000 -1.000000 0.000000
vn 0.000000 -1.000000 0.000000
vn 0.000000 0.000000 1.000000
vn 0.000000 0.000000 1.000000
vn 0.000000 0.000000 1.000000
vn 0.000000 0.000000 1.000000
vn 0.000000 1.000000 0.000000
vn 0.000000 1.000000 0.000000
vn 0.000000 1.000000 0.000000
vn 0.000000 1.000000 0.000000
vn -1.000000 0.000000 0.000000
vn -1.000000 0.000000 0.000000
vn -1.000000 0.000000 0.000000
vn -1.000000 0.000000 0.000000
vn 1.000000 0.000000 0.000000
vn 1.000000 0.000000 0.000000
vn 1.000000 0.000000 0.000000
vn 1.000000 0.000000 0.000000
s off
g reference_cube_inverted
usemtl lambert2SG
f 1/1/1 3/3/2 4/4/3 2/2/4
f 3/3/5 5/5/6 6/6/7 4/4/8
f 5/5/9 7/7/10 8/8/11 6/6/12
f 7/7/13 1/9/14 2/10/15 8/8/16
f 2/2/17 4/4/18 6/12/19 8/11/20
f 7/13/21 5/14/22 3/3/23 1/1/24
